# AST/ASF file generated using VICON BodyLanguage
# -----------------------------------------------
:version 1.10
:name VICON
:units
  mass 1.0
  length 0.45
  angle deg
:documentation
   .ast/.asf automatically generated from VICON data using
   VICON BodyBuilder and BodyLanguage model FoxedUp or BRILLIANT.MOD
:root
   order TX TY TZ RX RY RZ
   axis XYZ
   position 0 0 0  
   orientation 0 0 0 
:bonedata
  begin
     id 1 
     name lhipjoint
     direction 0.603808 -0.713975 0.35448 
     length 2.2025 
     axis 0 0 0  XYZ
  end
  begin
     id 2 
     name lfemur
     direction 0.34202 -0.939693 0  
     length 6.55877  
     axis 0 0 20  XYZ
    dof rx ry rz
    limits (-160.0 20.0)
           (-70.0 70.0)
           (-60.0 70.0)
  end
  begin
     id 3 
     name ltibia
     direction 0.34202 -0.939693 0   
     length 6.80302   
     axis 0 0 20   XYZ
    dof rx
    limits (-10.0 170.0)
  end
  begin
     id 4 
     name lfoot
     direction 0.091848 -0.25235 0.963267   
     length 2.03446   
     axis -90 7.62852e-016 20   XYZ
    dof rx rz
    limits (-45.0 90.0)
           (-70.0 20.0)
  end
  begin
     id 5 
     name ltoes
     direction 1.53608e-011 -4.21925e-011 1   
     length 1.02033   
     axis -90 7.62852e-016 20   XYZ
    dof rx
    limits (-90.0 20.0)
  end
  begin
     id 6 
     name rhipjoint
     direction -0.587285 -0.724947 0.359928   
     length 2.16916  
     axis 0 0 0  XYZ 
  end
  begin
     id 7 
     name rfemur
     direction -0.34202 -0.939693 0   
     length 6.43173   
     axis 0 0 -20   XYZ
    dof rx ry rz
    limits (-160.0 20.0)
           (-70.0 70.0)
           (-70.0 60.0)
  end
  begin
     id 8 
     name rtibia
     direction -0.34202 -0.939693 0   
     length 6.70662   
     axis 0 0 -20   XYZ
    dof rx
    limits (-10.0 170.0)
 end
 begin
     id 9 
     name rfoot
     direction -0.11854 -0.325686 0.938018   
     length 2.0773  
     axis -90 -7.62852e-016 -20   XYZ
    dof rx rz
    limits (-45.0 90.0)
           (-20.0 70.0)
  end
  begin
     id 10 
     name rtoes
     direction -1.53547e-011 -4.21838e-011 1   
     length 1.03267   
     axis -90 -7.62852e-016 -20   XYZ
    dof rx
    limits (-90.0 20.0)
  end
  begin
     id 11 
     name lowerback
     direction -0.0286554 0.999539 0.0100613   
     length 2.08751   
     axis 0 0 0   XYZ
    dof rx ry rz
    limits (-20.0 45.0)
           (-30.0 30.0)
           (-30.0 30.0)
  end
  begin
     id 12 
     name upperback
     direction 0.0227093 0.999705 -0.00860929   
     length 2.08517   
     axis 0 0 0   XYZ
    dof rx ry rz
    limits (-20.0 45.0)
           (-30.0 30.0)
           (-30.0 30.0)
  end
  begin
     id 13 
     name thorax
     direction 0.0351627 0.999285 -0.013892   
     length 2.08412   
     axis 0 0 0   XYZ
    dof rx ry rz
    limits (-20.0 45.0)
           (-30.0 30.0)
           (-30.0 30.0)
  end
  begin
     id 14 
     name lowerneck
     direction -0.0696283 0.997344 0.0213922   
     length 1.44164   
     axis 0 0 0   XYZ
    dof rx ry rz
    limits (-20.0 45.0)
           (-30.0 30.0)
           (-30.0 30.0)
  end
  begin
     id 15 
     name upperneck
     direction 0.0531 0.990412 -0.127531   
     length 1.45022   
     axis 0 0 0   XYZ
    dof rx ry rz
    limits (-20.0 45.0)
           (-30.0 30.0)
           (-30.0 30.0)
  end
  begin
     id 16
     name head
     direction 0.0188154 0.998548 -0.0504727  
     length 1.45845  
     axis 0 0 0   XYZ
    dof rx ry rz
    limits (-20.0 45.0)
           (-30.0 30.0)
           (-30.0 30.0)
  end
  begin
     id 17 
     name lclavicle
     direction 0.961559 0.260051 0.088188  
     length 2.86057  
     axis 0 0 0   XYZ
    dof ry rz
    limits (-20.0 10.0)
           (0.0 20.0)
  end
  begin
     id 18 
     name lhumerus
     direction 1 -4.48959e-011 2.88185e-027   
     length 4.36901   
     axis 180 -30 -90   XYZ
    dof rx ry rz
    limits (-60.0 90.0)
           (-90.0 90.0)
           (-90.0 90.0)
  end
  begin
     id 19
     name lradius
     direction 1 -4.48965e-011 -3.92618e-028   
     length 3.21737   
     axis 180 -30 -90   XYZ
    dof rx
    limits (-10.0 170.0)
  end
  begin
     id 20
     name lwrist
     direction 1 -4.49037e-011 2.57246e-027   
     length 1.60869   
     axis -1.61769e-015 90 90   XYZ
    dof ry
    limits (-180.0 0.0)
 end
  begin
     id 21 
     name lhand
     direction 1 -4.48807e-011 5.12958e-027   
     length 0.564313   
     axis -3.27988e-015 90 90   XYZ
    dof rx rz
    limits (-90.0 90.0)
           (-45.0 45.0)
  end
  begin
     id 22 
     name lfingers
     direction 1 -4.48879e-011 1.02687e-026   
     length 0.454963   
     axis -6.5598e-015 90 90   XYZ
    dof rx
    limits (0.0 90.0)
  end
  begin
     id 23
     name lthumb
     direction 0.707107 -6.3475e-011 0.707107   
     length 0.653239   
     axis -90 45 2.19363e-014   XYZ
    dof rx rz
    limits (-45.0 45.0)
           (-45.0 45.0)
  end
  begin
     id 24 
     name rclavicle
     direction -0.954677 0.253915 0.155304   
     length 3.11497  
     axis 0 0 0   XYZ 
    dof ry rz
    limits (-10.0 20.0)
           (-20.0 0.0)
  end
  begin
     id 25 
     name rhumerus
     direction -1 -4.48958e-011 -8.20169e-028  
     length 4.34118   
     axis 180 30 90   XYZ
    dof rx ry rz
    limits (-90.0 60.0)
           (-90.0 90.0)
           (-90.0 90.0)
  end
  begin
     id 26 
     name rradius
     direction -1 -4.48978e-011 1.5676e-027   
     length 3.09531   
     axis 180 30 90   XYZ
    dof rx
    limits (-10.0 170.0)
  end
  begin
     id 27 
     name rwrist
     direction -1 -4.49001e-011 2.57123e-027   
     length 1.54765   
     axis -1.61769e-015 -90 -90   XYZ
    dof ry
    limits (-180.0 0.0)
  end
  begin
     id 28
     name rhand
     direction -1 -4.48847e-011 5.13225e-027   
     length 0.597446   
     axis -3.27988e-015 -90 -90   XYZ
    dof rx rz
    limits (-90.0 90.0)
           (-45.0 45.0)
  end
  begin
     id 29
     name rfingers
     direction -1 -4.49094e-011 1.02974e-026   
     length 0.481677   
     axis -6.5598e-015 -90 -90   XYZ
    dof rx
    limits (0.0 90.0)
  end
  begin
     id 30
     name rthumb
     direction -0.707107 -6.34859e-011 0.707107   
     length 0.691594   
     axis -90 -45 -2.19363e-014   XYZ
    dof rx rz
    limits (-45.0 45.0)
           (-45.0 45.0)
  end
:hierarchy
  begin
    root lhipjoint rhipjoint lowerback
    lhipjoint lfemur
    lfemur ltibia
    ltibia lfoot
    lfoot ltoes
    rhipjoint rfemur
    rfemur rtibia
    rtibia rfoot
    rfoot rtoes
    lowerback upperback
    upperback thorax
    thorax lowerneck lclavicle rclavicle
    lowerneck upperneck
    upperneck head
    lclavicle lhumerus
    lhumerus lradius
    lradius lwrist
    lwrist lhand lthumb
    lhand lfingers
    rclavicle rhumerus
    rhumerus rradius
    rradius rwrist
    rwrist rhand rthumb
    rhand rfingers
  end

#!OML:ASF I:\Acrobat_Osman\acrobat\cartwheel_test 2\Patient 1\Session 1\acrobat.ASF
:FULLY-SPECIFIED
:DEGREES
3121
root 7.36634 26.409 17.0103 548.162 -179.537 -177.861
lowerback -12.5996 -0.222616 -4.74592
upperback -2.97912 0.20781 2.37883
thorax 3.90008 0.0596736 5.22492
lowerneck -9.74764 -3.59964 -5.97524
upperneck 33.8147 -3.98084 0.195547
head 13.0713 -2.49154 0.570314
rclavicle 2.5345e-014 -4.77083e-015
rhumerus -41.5689 11.3424 -89.8473
rradius 34.0674
rwrist 2.76144
rhand -18.5085 -338.201
rfingers 7.12502
rthumb 7.77954 -368.038
lclavicle 2.5345e-014 -4.77083e-015
lhumerus -221.011 192.917 274.227
lradius 38.1116
lwrist -338.649
lhand -15.645 -671.11
lfingers 7.12502
lthumb 10.5427 1158.61
rfemur 160.689 -190.82 -157.042
rtibia 40.3875
rfoot -213.154 162.48
rtoes 6.40175
lfemur 159.033 183.154 154.679
ltibia 43.5471
lfoot -29.0492 14.8584
ltoes -7.14349
3122
root 7.36807 26.4125 17.0074 548.237 -179.57 -177.867
lowerback -12.6423 -0.235344 -4.70537
upperback -3.0117 0.188642 2.34911
thorax 3.89201 0.05159 5.1673
lowerneck -9.69146 -3.58846 -6.06834
upperneck 33.8419 -3.98965 0.324263
head 13.0771 -2.49144 0.636255
rclavicle 1.22253e-014 -1.74931e-014
rhumerus -41.7172 11.3094 -90.0481
rradius 33.7673
rwrist 3.00675
rhand -18.422 -337.974
rfingers 7.12502
rthumb 7.86301 -367.808
lclavicle 1.22253e-014 -1.74931e-014
lhumerus -221.341 193.032 274.626
lradius 37.438
lwrist -338.767
lhand -15.9427 -671.329
lfingers 7.12502
lthumb 10.2554 1158.4
rfemur 160.608 -191.007 -157.035
rtibia 40.3886
rfoot -213.061 162.673
rtoes 7.85681
lfemur 158.931 183.2 154.696
ltibia 43.522
lfoot -29.2131 14.6152
ltoes -5.75909
3123
root 7.37281 26.4175 17.0048 548.281 -179.613 -177.956
lowerback -12.6422 -0.226961 -4.5431
upperback -3.04729 0.178561 2.34928
thorax 3.85679 0.0497606 5.07252
lowerneck -9.62536 -3.58568 -6.18213
upperneck 33.8948 -4.00141 0.436738
head 13.0924 -2.49759 0.699076
rclavicle 1.44616e-014 2.14687e-014
rhumerus -41.8752 11.2387 -90.1633
rradius 33.5297
rwrist 3.28942
rhand -18.3947 -337.914
rfingers 7.12502
rthumb 7.88942 -367.746
lclavicle 1.44616e-014 2.14687e-014
lhumerus -221.623 192.989 274.884
lradius 36.7184
lwrist -339.12
lhand -15.8945 -671.278
lfingers 7.12502
lthumb 10.3019 1158.45
rfemur 160.546 -191.047 -156.945
rtibia 40.4136
rfoot -212.896 162.626
rtoes 7.8363
lfemur 158.894 183.333 154.786
ltibia 43.4667
lfoot -29.0447 14.6885
ltoes -6.12402
3124
root 7.37939 26.424 17.0026 548.323 -179.606 -177.94
lowerback -12.7117 -0.219158 -4.49297
upperback -3.03695 0.185383 2.34464
thorax 3.90532 0.0518984 5.04105
lowerneck -9.51036 -3.59564 -6.26398
upperneck 33.8271 -4.02521 0.498324
head 13.0437 -2.51035 0.736508
rclavicle -7.20594e-015 -3.49861e-014
rhumerus -41.9095 11.1685 -90.1373
rradius 33.3568
rwrist 3.61769
rhand -18.412 -338.063
rfingers 7.12502
rthumb 7.87269 -367.897
lclavicle -7.20594e-015 -3.49861e-014
lhumerus -221.868 192.941 275.127
lradius 36.1493
lwrist -339.426
lhand -15.9558 -671.174
lfingers 7.12502
lthumb 10.2428 1158.56
rfemur 160.443 -190.854 -157.015
rtibia 40.4583
rfoot -212.698 162.745
rtoes 7.39071
lfemur 158.89 183.501 154.738
ltibia 43.3866
lfoot -28.9279 14.7738
ltoes -5.87661
3125
root 7.38615 26.4304 16.9955 548.379 -179.611 -177.836
lowerback -12.7766 -0.232725 -4.55094
upperback -2.99984 0.178588 2.32639
thorax 3.98051 0.0450523 5.05513
lowerneck -9.49312 -3.63072 -6.36796
upperneck 33.7523 -4.07443 0.561427
head 13.015 -2.53634 0.772803
rclavicle 1.79403e-014 -4.77083e-015
rhumerus -41.8389 11.0143 -89.9971
rradius 33.2173
rwrist 3.91242
rhand -18.3856 -338.19
rfingers 7.12502
rthumb 7.89822 -368.023
lclavicle 1.79403e-014 -4.77083e-015
lhumerus -222.089 192.831 275.264
lradius 35.7399
lwrist -339.641
lhand -16.1269 -671.172
lfingers 7.12502
lthumb 10.0778 1158.57
rfemur 160.305 -190.437 -157.201
rtibia 40.4997
rfoot -212.494 163.105
rtoes 7.16359
lfemur 158.834 183.637 154.588
ltibia 43.3082
lfoot -28.631 14.9895
ltoes -6.33071
3126
root 7.39106 26.4359 16.9842 548.433 -179.677 -177.699
lowerback -12.8426 -0.274047 -4.66551
upperback -2.91778 0.143012 2.30829
thorax 4.10687 0.0208259 5.09766
lowerneck -9.60911 -3.66197 -6.41821
upperneck 33.7234 -4.09747 0.555925
head 13.0305 -2.55232 0.773945
rclavicle 1.34677e-014 -1.35174e-014
rhumerus -41.6416 10.8656 -89.8173
rradius 32.9946
rwrist 4.10796
rhand -18.3528 -338.167
rfingers 7.12502
rthumb 7.92985 -367.998
lclavicle 1.34677e-014 -1.35174e-014
lhumerus -222.121 192.605 275.244
lradius 35.3801
lwrist -339.869
lhand -15.937 -671.147
lfingers 7.12502
lthumb 10.2609 1158.58
rfemur 160.175 -190.191 -157.406
rtibia 40.5242
rfoot -212.374 163.297
rtoes 7.26511
lfemur 158.74 183.76 154.415
ltibia 43.2455
lfoot -28.1884 15.2579
ltoes -7.78162
3127
root 7.39289 26.4409 16.9706 548.41 -179.728 -177.657
lowerback -12.8441 -0.286666 -4.73039
upperback -2.79625 0.134682 2.33205
thorax 4.2365 0.00924278 5.16018
lowerneck -9.67988 -3.66923 -6.42077
upperneck 33.6554 -4.08404 0.507783
head 13.0152 -2.55106 0.756636
rclavicle -7.65321e-015 -1.19271e-014
rhumerus -41.3761 10.7615 -89.6004
rradius 32.7486
rwrist 4.21247
rhand -18.4082 -338.092
rfingers 7.12502
rthumb 7.87634 -367.925
lclavicle -7.65321e-015 -1.19271e-014
lhumerus -221.958 192.255 275.111
lradius 34.9479
lwrist -340.169
lhand -15.6335 -671.062
lfingers 7.12502
lthumb 10.5537 1158.65
rfemur 160.124 -190.385 -157.475
rtibia 40.5231
rfoot -212.265 163.194
rtoes 7.71263
lfemur 158.708 183.861 154.372
ltibia 43.2084
lfoot -27.9507 15.3298
ltoes -8.55004
3128
root 7.39435 26.4492 16.9538 548.361 -179.731 -177.725
lowerback -12.7507 -0.251132 -4.70943
upperback -2.69884 0.172177 2.40574
thorax 4.28316 0.0240446 5.23252
lowerneck -9.73091 -3.67828 -6.40037
upperneck 33.6288 -4.06886 0.425878
head 13.0118 -2.55075 0.722689
rclavicle -1.05853e-014 -4.37326e-014
rhumerus -41.1339 10.5925 -89.2453
rradius 32.6436
rwrist 4.31233
rhand -18.276 -337.995
rfingers 7.12502
rthumb 8.00396 -367.824
lclavicle -1.05853e-014 -4.37326e-014
lhumerus -221.653 191.571 274.74
lradius 34.2235
lwrist -340.98
lhand -15.4611 -671.115
lfingers 7.12502
lthumb 10.72 1158.59
rfemur 160.088 -190.612 -157.422
rtibia 40.4928
rfoot -211.983 163.081
rtoes 7.59396
lfemur 158.647 183.986 154.459
ltibia 43.193
lfoot -27.7755 15.3635
ltoes -8.57276
3129
root 7.39939 26.4599 16.9324 548.374 -179.745 -177.813
lowerback -12.6674 -0.240922 -4.65017
upperback -2.62005 0.170408 2.49748
thorax 4.32071 0.0204452 5.29577
lowerneck -9.87931 -3.67487 -6.28282
upperneck 33.7073 -4.02841 0.27039
head 13.0685 -2.53744 0.644257
rclavicle -2.10215e-014 -2.06736e-014
rhumerus -40.9724 10.5195 -88.7975
rradius 32.8031
rwrist 4.3219
rhand -17.9608 -337.772
rfingers 7.12502
rthumb 8.30813 -367.588
lclavicle -2.10215e-014 -2.06736e-014
lhumerus -221.238 190.571 274.112
lradius 33.5504
lwrist -342.066
lhand -15.3869 -671.422
lfingers 7.12502
lthumb 10.7915 1158.28
rfemur 159.963 -190.558 -157.381
rtibia 40.4441
rfoot -211.566 163.142
rtoes 6.81624
lfemur 158.476 184.095 154.559
ltibia 43.1804
lfoot -27.4819 15.4455
ltoes -8.79725
